<?xml version="1.0" encoding="utf-8"?>
<!-- Generator: Adobe Illustrator 25.2.3, SVG Export Plug-In . SVG Version: 6.00 Build 0)  -->
<svg version="1.1" id="Layer_1" xmlns="http://www.w3.org/2000/svg" xmlns:xlink="http://www.w3.org/1999/xlink" x="0px" y="0px"
	 viewBox="0 0 140 245" style="enable-background:new 0 0 140 245;" xml:space="preserve">
<style type="text/css">
	.st0{opacity:0.6;clip-path:url(#SVGID_2_);}
	.st1{clip-path:url(#SVGID_2_);fill:#E35289;}
	.st2{clip-path:url(#SVGID_2_);fill:#FBE31A;}
	.st3{clip-path:url(#SVGID_2_);fill:#06657F;}
	.st4{clip-path:url(#SVGID_2_);fill:#D5B1D3;}
	.st5{clip-path:url(#SVGID_2_);fill:#FFFFFF;}
	.st6{clip-path:url(#SVGID_2_);fill:#849740;}
</style>
<g>
	<defs>
		<rect id="SVGID_1_" x="0.58" y="0.77" width="138.39" height="242.36"/>
	</defs>
	<clipPath id="SVGID_2_">
		<use xlink:href="#SVGID_1_"  style="overflow:visible;"/>
	</clipPath>
	<g class="st0">
		<g>
			<defs>
				<rect id="SVGID_3_" x="-8117.5" y="-0.59" width="16383" height="0.1"/>
			</defs>
			<clipPath id="SVGID_4_">
				<use xlink:href="#SVGID_3_"  style="overflow:visible;"/>
			</clipPath>
		</g>
	</g>
	<g class="st0">
		<g>
			<defs>
				<rect id="SVGID_5_" x="138.9" y="-8037.99" width="0.1" height="16383"/>
			</defs>
			<clipPath id="SVGID_6_">
				<use xlink:href="#SVGID_5_"  style="overflow:visible;"/>
			</clipPath>
		</g>
	</g>
	<path class="st1" d="M124.56,15.47c0.3,1.34,2.4,1.33,2.69,0c1.27-5.67,5.18-14.87,14.29-24.62h-9.63
		C129.39-4.21,122.53,6.26,124.56,15.47"/>
	<path class="st2" d="M103.31,118.75c-10.83-5.23-43.55,7.57-55.45,10.75c-10.47,2.8-28.51,12.89-47.29,12.39v25.47h109.25
		C109.66,148.49,112.25,123.06,103.31,118.75"/>
	<path class="st1" d="M90.33,116.53c-14.39-8.53-39.48-1.35-30.3,21.34c0,0-9.13,9.16-4.13,16.75c-4.4,1.71-9.49,5.73-13.76,12.75
		h3.31h14.46h38.91C104.58,148.51,102.93,124,90.33,116.53"/>
	<path class="st3" d="M110.85,163.5c0,0,6.34-1.8,5.2-6.93c-1.15-5.14-5.2-6.65-5.2-6.65s5.74-1.98,5.15-7.7
		c-0.59-5.71-7.27-8.31-7.27-8.31s6.06-4.54,5.11-10.19c-0.96-5.64-7.32-6.03-7.32-6.03c2.19-2.82,8.29-3.88-2.51-14.37
		c-8.45-8.2-9.58-0.3-12.61,1.8c-3.04,2.1,0,11.28,0,11.28l-2.06,13.39c-0.26,7.85,5.18,8.85,5.18,8.85s-7.62,1.8-7.62,9.5
		c0,5.2,7.76,7,7.76,7s-8.32,3.3-6.86,10.63c0.12,0.59,0.27,1.13,0.43,1.62h27.39C114.25,164.33,110.85,163.5,110.85,163.5"/>
	<path class="st3" d="M5.36,151.71c0,0,3.13,12.58,11.36,0.5c0,0,1.2,5.61,7.71,4.53c8.37-1.38,7.67-6.83,7.67-6.83
		s2.12,5.72,8.41,4.49c8.53-1.68,6.16-9.36,6.16-9.36s5.27,6.52,11.23,3.08c6.61-3.82,3.27-8.78,2.22-10.07
		c-0.18-0.2-0.28-0.32-0.28-0.32s0.11,0.12,0.28,0.32c1.11,1.24,5.48,5.52,10.8,2.7c6.16-3.27,1.81-9.58,1.81-9.58
		s6.4,4.54,10.76,2.57c4.36-1.97,1.8-9.16,1.8-9.16s5.28,5.49,11.06-2.41c5.78-7.9,0-14.07,0-14.07s8.54,2.69,11.47-5.09
		c2.93-7.79-8.65-23.15-19.32-15.47c0,0-12.44-0.26-7.37,8.8c0,0-5.19-0.27-8.39,3.16c-3.21,3.43-1.08,8.59-1.08,8.59
		s-6.29-3.15-9.94-0.23c-3.66,2.92-1.31,9.52-1.31,9.52s-5.35-4.53-10.14-1.97c-4.79,2.56-3.02,9.15-3.02,9.15s-4.01-5.99-9.64-3.44
		c-6.57,2.98-6.43,8.41-6.3,9.73c0.03,0.19,0.04,0.3,0.04,0.3s-0.02-0.11-0.04-0.3c-0.21-1.28-1.51-6.29-8.67-6.29
		c-5.16,0-6.75,3.17-7.24,5.35c0.07,1.14-0.22,2.01-0.22,2.01s-0.04-0.87,0.22-2.01c-0.12-1.99-1.3-4.81-6.9-5.35
		c-3.76-0.37-6.26,0.48-7.91,1.57v30.37C4.3,155.44,5.36,151.71,5.36,151.71"/>
	<path class="st4" d="M12.41,109.15c1.34,0.1,2.69,0.17,4.03,0.23c3.77,0.07,7.48-0.36,11.17-0.93c0.65-0.42,1.41-0.67,2.22-0.67
		c0.05,0,0.08,0,0.11,0c0.02,0,0.03-0.01,0.06-0.02c0.22-0.06,0.43-0.13,0.65-0.2c0.54-0.2,1.08-0.42,1.63-0.59
		c0.38-0.11,0.75-0.2,1.12-0.26c4.33-5.26,6.31-12.52,6.31-19.22c0-7.74-3.33-13.65-7.9-17.62c-5.39-0.81-10.8-1.65-16.23-1.55
		c-4.14,0.08-8.17,0.66-12.22,1.51C2.53,70,1.55,70.1,0.58,70.24v37.31c1.17,0.04,2.34,0.12,3.51,0.34
		C6.86,108.41,9.59,108.94,12.41,109.15"/>
	<path class="st2" d="M3.9,93.62c0.3,0.78-2.58,2.79-2.58,2.79s2.88-1.14,3.41-0.41c0.65,0.89-4.03,3.77-4.03,3.77
		s4.07-1.96,4.7-1.08c0.63,0.88-2.86,5.58-2.86,5.58s3.42-3.92,4.56-3.72c1.14,0.21,0.31,3.72,0.31,3.72s1.41-3.77,2.58-3.3
		c1.03,0.41,0,4.65,0,4.65s2.02-3.79,2.84-3.69c1.75,0.22,1.75,4.52,1.75,4.52s0.44-4.74,1.5-4.86c0.93-0.1,1.33,3.15,1.33,3.15
		s0.07-3.15,1.05-3.35c1.1-0.23,2.99,4.61,2.99,4.61s-1.65-4.94-0.93-5.44c0.72-0.51,4.24,5.44,4.24,5.44s-2.05-5.33-1.28-6.57
		c0.76-1.24,6.07,3.33,6.07,3.33s-3.71-4.06-3.17-5.61c0.44-1.26,2.57-0.47,3.35-0.13c-0.84-0.4-3.2-1.63-2.6-2.65
		c0.73-1.24,4.55,0,4.55,0s-3.68-2-3.41-3c0.31-1.14,5.99-0.85,5.99-0.85s-4.72-1.2-4.71-2.04c0.01-2.07,4.71-2.3,4.71-2.3
		s-4.07-0.26-4.54-1.67c-0.27-0.81,3.12-2.64,3.12-2.64s-4.37,1.03-4.78,0c-0.58-1.46,3.1-6.61,3.1-6.61s-3.16,3.28-4.78,2.72
		c-1.62-0.55,0.44-6.44,0.44-6.44s-2.69,5.37-4.03,4.65c-1.35-0.72-0.62-2.89-0.41-4.65c0,0-2.32,4.62-3.94,3.81
		c-1.63-0.82-1.63-5.3-1.63-5.3s-0.93,4.8-2.22,5.11c-1.29,0.31-2.11-3.08-2.11-3.08s0.31,4.11-0.93,4.32
		c-1.24,0.21-3.82-4.32-3.82-4.32s1.65,4.32,0.93,5.14c-0.72,0.83-3.1-1.14-3.1-1.14s1.34,2.17,0.41,2.89
		c-0.93,0.72-5.06-1.76-5.06-1.76s3.72,3.92,2.99,4.75c-0.45,0.51-2.11-0.04-3.32-0.54v0.67c0.75,0.77,1.52,1.69,1.41,2.09
		c-0.08,0.28-0.68,0.47-1.41,0.6v1.09c0.72,0.25,1.28,0.52,1.26,0.73c-0.03,0.27-0.55,0.6-1.26,0.92v1.89
		c1.17,0.26,2.17,0.62,2.19,1.12c0.03,0.75-0.98,1.53-2.19,2.18v0.89C2.2,93.34,3.75,93.22,3.9,93.62"/>
	<path class="st1" d="M138.91,32.27c-4.28-9.17-13.5-16.44-22.61-16.65c0.6-8.72,4.56-17.85,8.24-24.77h-9.3
		c-0.51,0.86-0.46,0.59-1.67,3.19c-1.29,2.76-0.25,0.44-2.36,5.47c-1.61,4.7-2.28,11.19-1.51,17.31c-0.34,0.14-0.68,0.28-1.02,0.45
		c-1.27,0.62-2.4,1.4-3.42,2.3c-1.6-4.67-3.37-9.24-5.82-13.52c-1.47-2.57-8.8-13.05-10.32-15.19h-11.6
		c3.1,4.83,13.31,14.39,18.81,24.43c1.71,3.12,3.24,6.29,4.99,9.27c-5.51,9.8-4.41,24.13-4.41,24.13
		c3.05,25.74,17.65,28.47,17.65,28.47c1.18,11.63-14.34,31.27-14.34,31.27c2.18,7.75,11.24,17.96,25.29,22.69
		c0.14,5.66,0.47,20.26,0.62,36.26h12.78V32.27z"/>
	<path class="st3" d="M16.43,175.24c4.08,0,7.57,1.99,9.86,4.28l-4.68,5.28c-1.59-1.39-2.99-2.19-5.08-2.19
		c-3.88,0-7.17,3.48-7.17,9.36c0,6.08,2.79,9.46,6.97,9.46c2.49,0,4.28-1.1,5.68-2.59l4.68,5.18c-2.74,3.19-6.47,4.78-10.45,4.78
		c-8.46,0-15.63-5.48-15.63-16.53C0.6,181.42,8.06,175.24,16.43,175.24"/>
	<polygon class="st3" points="31.17,175.84 52.08,175.84 52.08,183.01 39.73,183.01 39.73,188.09 50.28,188.09 50.28,195.26 
		39.73,195.26 39.73,201.04 52.57,201.04 52.57,208.21 31.17,208.21 	"/>
	<path class="st3" d="M76.27,208.21l-5.58-10.85h-3.28v10.85h-8.56v-32.36h12.25c6.97,0,12.95,2.39,12.95,10.46
		c0,4.63-2.09,7.67-5.23,9.36l7.02,12.55H76.27z M67.41,190.58h3.09c3.39,0,5.18-1.49,5.18-4.28s-1.79-3.68-5.18-3.68h-3.09V190.58z
		"/>
	<polygon class="st3" points="95.44,183.01 86.88,183.01 86.88,175.84 112.57,175.84 112.57,183.01 104,183.01 104,208.21 
		95.44,208.21 	"/>
	<polygon class="st3" points="117.35,175.84 138.92,175.84 138.92,183.01 125.91,183.01 125.91,188.09 136.47,188.09 136.47,195.26 
		125.91,195.26 125.91,201.04 138.92,201.04 138.92,208.21 117.35,208.21 	"/>
	<path class="st3" d="M6.73,218.5v5.61c0,0.12-0.11,0.25-0.25,0.25H5.99c-0.14,0-0.25-0.12-0.25-0.25v-5.61
		c0-0.43-0.35-0.79-0.8-0.79c-0.43,0-0.79,0.35-0.79,0.79v5.61c0,0.12-0.11,0.25-0.25,0.25H3.42c-0.14,0-0.25-0.12-0.25-0.25v-5.61
		c0-0.43-0.36-0.79-0.79-0.79c-0.45,0-0.8,0.35-0.8,0.79v5.61c0,0.12-0.11,0.25-0.25,0.25H0.84c-0.12,0-0.25-0.12-0.25-0.25v-5.61
		c0-0.97,0.8-1.77,1.79-1.77c0.49,0,0.96,0.21,1.28,0.55c0.32-0.34,0.79-0.55,1.28-0.55C5.93,216.73,6.73,217.53,6.73,218.5"/>
	<path class="st3" d="M9.71,217.72v2.33h1.34c0.14,0,0.25,0.11,0.25,0.25v0.49c0,0.14-0.11,0.25-0.25,0.25H9.71v2.34h1.34
		c0.14,0,0.25,0.11,0.25,0.25v0.49c0,0.14-0.11,0.25-0.25,0.25H9.22c-0.28,0-0.49-0.23-0.49-0.49v-6.65c0-0.28,0.22-0.49,0.49-0.49
		h1.83c0.14,0,0.25,0.11,0.25,0.25v0.49c0,0.14-0.11,0.25-0.25,0.25H9.71z"/>
	<path class="st3" d="M16.85,218.52v4.06c0,0.99-0.79,1.79-1.77,1.79h-1.3c-0.26,0-0.49-0.23-0.49-0.49v-6.65
		c0-0.28,0.23-0.49,0.49-0.49h1.3C16.06,216.73,16.85,217.53,16.85,218.52 M15.86,218.52c0-0.44-0.36-0.8-0.79-0.8h-0.8v5.65h0.8
		c0.43,0,0.79-0.36,0.79-0.79V218.52z"/>
	<path class="st3" d="M19.82,224.12c0,0.14-0.11,0.25-0.25,0.25h-0.49c-0.14,0-0.25-0.11-0.25-0.25v-7.14
		c0-0.14,0.11-0.25,0.25-0.25h0.49c0.12,0,0.25,0.11,0.25,0.25V224.12z"/>
	<path class="st3" d="M24.22,219.03v-0.52c0-0.43-0.35-0.79-0.79-0.79c-0.43,0-0.79,0.36-0.79,0.79c0,0.2,0,0.2,0.05,0.26l2.14,2.84
		c0.37,0.49,0.37,0.49,0.37,0.99c0,0.97-0.8,1.77-1.77,1.77c-0.97,0-1.77-0.8-1.77-1.77v-0.52c0-0.14,0.11-0.25,0.25-0.25h0.49
		c0.14,0,0.25,0.11,0.25,0.25v0.52c0,0.43,0.35,0.79,0.79,0.79c0.43,0,0.79-0.35,0.79-0.79c0-0.2,0-0.2-0.05-0.26l-2.14-2.84
		c-0.37-0.49-0.37-0.49-0.37-0.99c0-0.97,0.8-1.77,1.77-1.77c0.97,0,1.77,0.8,1.77,1.77v0.52c0,0.14-0.11,0.25-0.25,0.25h-0.5
		C24.33,219.27,24.22,219.17,24.22,219.03"/>
	<path class="st3" d="M29.6,219.03v-0.52c0-0.43-0.35-0.79-0.79-0.79c-0.43,0-0.79,0.36-0.79,0.79v4.09c0,0.43,0.35,0.79,0.79,0.79
		c0.43,0,0.79-0.35,0.79-0.79v-0.57c0-0.14,0.11-0.25,0.25-0.25h0.49c0.14,0,0.25,0.11,0.25,0.25v0.57c0,0.97-0.8,1.77-1.77,1.77
		c-0.99,0-1.77-0.8-1.77-1.77v-4.09c0-0.97,0.79-1.77,1.77-1.77c0.97,0,1.77,0.8,1.77,1.77v0.52c0,0.14-0.11,0.25-0.25,0.25h-0.49
		C29.71,219.27,29.6,219.17,29.6,219.03"/>
	<path class="st3" d="M35.97,216.97v7.14c0,0.14-0.11,0.25-0.25,0.25h-0.49c-0.12,0-0.25-0.11-0.25-0.25v-3.08h-1.57v3.08
		c0,0.14-0.11,0.25-0.25,0.25h-0.49c-0.14,0-0.25-0.11-0.25-0.25v-7.14c0-0.14,0.11-0.25,0.25-0.25h0.49c0.14,0,0.25,0.11,0.25,0.25
		v3.07h1.57v-3.07c0-0.14,0.12-0.25,0.25-0.25h0.49C35.86,216.73,35.97,216.84,35.97,216.97"/>
	<path class="st3" d="M38.94,217.72v2.33h1.34c0.14,0,0.25,0.11,0.25,0.25v0.49c0,0.14-0.11,0.25-0.25,0.25h-1.34v2.34h1.34
		c0.14,0,0.25,0.11,0.25,0.25v0.49c0,0.14-0.11,0.25-0.25,0.25h-1.84c-0.28,0-0.49-0.23-0.49-0.49v-6.65c0-0.28,0.22-0.49,0.49-0.49
		h1.84c0.14,0,0.25,0.11,0.25,0.25v0.49c0,0.14-0.11,0.25-0.25,0.25H38.94z"/>
	<path class="st3" d="M49.01,218.52v4.06c0,0.99-0.79,1.79-1.77,1.79h-1.3c-0.26,0-0.49-0.23-0.49-0.49v-6.65
		c0-0.28,0.23-0.49,0.49-0.49h1.3C48.23,216.73,49.01,217.53,49.01,218.52 M48.03,218.52c0-0.44-0.36-0.8-0.79-0.8h-0.8v5.65h0.8
		c0.43,0,0.79-0.36,0.79-0.79V218.52z"/>
	<path class="st3" d="M51.99,224.12c0,0.14-0.11,0.25-0.25,0.25h-0.49c-0.14,0-0.25-0.11-0.25-0.25v-7.14
		c0-0.14,0.11-0.25,0.25-0.25h0.49c0.12,0,0.25,0.11,0.25,0.25V224.12z"/>
	<path class="st3" d="M57.54,218.52v5.6c0,0.14-0.11,0.25-0.25,0.25H56.8c-0.14,0-0.25-0.11-0.25-0.25v-3.07h-1.59v3.07
		c0,0.14-0.11,0.25-0.25,0.25h-0.49c-0.14,0-0.25-0.11-0.25-0.25v-5.6c0-0.97,0.8-1.77,1.79-1.77
		C56.74,216.74,57.54,217.55,57.54,218.52 M56.55,218.52c0-0.43-0.35-0.78-0.79-0.78c-0.45,0-0.8,0.35-0.8,0.78v1.54h1.59V218.52z"
		/>
	<path class="st3" d="M62.09,219.04v-0.52c0-0.45-0.35-0.79-0.79-0.79c-0.43,0-0.79,0.34-0.79,0.79v4.09c0,0.43,0.36,0.79,0.79,0.79
		c0.43,0,0.79-0.36,0.79-0.79v-1.59h-0.54c-0.14,0-0.25-0.11-0.25-0.23v-0.49c0-0.14,0.11-0.25,0.25-0.25h1.28
		c0.14,0,0.25,0.11,0.25,0.25v2.31c0,0.97-0.8,1.76-1.77,1.76c-0.97,0-1.77-0.79-1.77-1.76v-4.09c0-0.99,0.8-1.77,1.77-1.77
		c0.97,0,1.77,0.79,1.77,1.77v0.52c0,0.14-0.11,0.25-0.25,0.25h-0.49C62.2,219.29,62.09,219.18,62.09,219.04"/>
	<path class="st3" d="M68.63,218.5v5.61c0,0.12-0.11,0.25-0.25,0.25h-0.49c-0.14,0-0.25-0.12-0.25-0.25v-5.61
		c0-0.43-0.35-0.79-0.79-0.79c-0.45,0-0.8,0.35-0.8,0.79v5.61c0,0.12-0.11,0.25-0.25,0.25h-0.49c-0.14,0-0.25-0.12-0.25-0.25v-5.61
		c0-0.97,0.8-1.77,1.79-1.77C67.82,216.73,68.63,217.53,68.63,218.5"/>
	<path class="st3" d="M74.18,218.5v4.07c0,0.99-0.8,1.79-1.77,1.79c-0.99,0-1.79-0.8-1.79-1.79v-4.07c0-0.97,0.8-1.77,1.79-1.77
		C73.38,216.73,74.18,217.53,74.18,218.5 M73.19,218.5c0-0.43-0.35-0.79-0.79-0.79c-0.45,0-0.8,0.35-0.8,0.79v4.07
		c0,0.45,0.36,0.8,0.8,0.8c0.43,0,0.79-0.35,0.79-0.8V218.5z"/>
	<path class="st3" d="M78.57,219.03v-0.52c0-0.43-0.36-0.79-0.79-0.79c-0.43,0-0.79,0.36-0.79,0.79c0,0.2,0,0.2,0.05,0.26l2.14,2.84
		c0.37,0.49,0.37,0.49,0.37,0.99c0,0.97-0.8,1.77-1.77,1.77c-0.97,0-1.77-0.8-1.77-1.77v-0.52c0-0.14,0.11-0.25,0.25-0.25h0.49
		c0.14,0,0.25,0.11,0.25,0.25v0.52c0,0.43,0.35,0.79,0.79,0.79c0.43,0,0.79-0.35,0.79-0.79c0-0.2,0-0.2-0.05-0.26l-2.14-2.84
		c-0.37-0.49-0.37-0.49-0.37-0.99c0-0.97,0.8-1.77,1.77-1.77c0.97,0,1.77,0.8,1.77,1.77v0.52c0,0.14-0.11,0.25-0.25,0.25h-0.5
		C78.68,219.27,78.57,219.17,78.57,219.03"/>
	<path class="st3" d="M84.11,216.97v0.49c0,0.14-0.11,0.25-0.25,0.25h-0.69v6.4c0,0.12-0.11,0.25-0.25,0.25h-0.49
		c-0.14,0-0.25-0.12-0.25-0.25v-6.4h-0.69c-0.14,0-0.25-0.11-0.25-0.25v-0.49c0-0.14,0.11-0.25,0.25-0.25h2.38
		C84,216.73,84.11,216.84,84.11,216.97"/>
	<path class="st3" d="M86.93,224.12c0,0.14-0.11,0.25-0.25,0.25h-0.49c-0.14,0-0.25-0.11-0.25-0.25v-7.14
		c0-0.14,0.11-0.25,0.25-0.25h0.49c0.12,0,0.25,0.11,0.25,0.25V224.12z"/>
	<path class="st3" d="M89.9,217.72v2.33h1.34c0.14,0,0.25,0.11,0.25,0.25v0.49c0,0.14-0.11,0.25-0.25,0.25H89.9v2.34h1.34
		c0.14,0,0.25,0.11,0.25,0.25v0.49c0,0.14-0.11,0.25-0.25,0.25h-1.84c-0.28,0-0.49-0.23-0.49-0.49v-6.65c0-0.28,0.22-0.49,0.49-0.49
		h1.84c0.14,0,0.25,0.11,0.25,0.25v0.49c0,0.14-0.11,0.25-0.25,0.25H89.9z"/>
	<path class="st3" d="M97.04,219.24c0,0.51-0.22,0.97-0.56,1.3c0.34,0.32,0.56,0.77,0.56,1.28v2.3c0,0.12-0.11,0.25-0.25,0.25h-0.5
		c-0.14,0-0.24-0.12-0.24-0.25v-2.3c0-0.43-0.36-0.79-0.8-0.79h-0.79v3.08c0,0.12-0.11,0.25-0.25,0.25h-0.49
		c-0.14,0-0.25-0.12-0.25-0.25v-3.08v-0.99v-3.07c0-0.14,0.11-0.25,0.25-0.25h0.49c0.14,0,0.25,0.11,0.25,0.25v3.07h0.79
		c0.45,0,0.8-0.36,0.8-0.8v-2.27c0-0.14,0.11-0.25,0.24-0.25h0.5c0.14,0,0.25,0.11,0.25,0.25V219.24z"/>
	<path class="st3" d="M106.56,219.52v0.49c0,0.14-0.11,0.25-0.25,0.25h-0.79v3.86c0,0.14-0.12,0.25-0.25,0.25h-1.54
		c-0.97,0-1.77-0.8-1.77-1.79v-1.51c0-0.51,0.2-0.97,0.55-1.3c-0.35-0.32-0.55-0.77-0.55-1.28c0-0.99,0.8-1.79,1.77-1.79h0.53
		c0.14,0,0.25,0.12,0.25,0.25v0.51c0,0.12-0.11,0.25-0.25,0.25h-0.53c-0.43,0-0.79,0.35-0.79,0.79c0,0.43,0.35,0.79,0.79,0.79h0.8
		v-0.79c0-0.14,0.11-0.25,0.25-0.25h0.49c0.12,0,0.25,0.11,0.25,0.25v0.79h0.79C106.45,219.27,106.56,219.4,106.56,219.52
		 M104.54,220.26h-0.8c-0.43,0-0.79,0.37-0.79,0.8v1.51c0,0.45,0.35,0.8,0.79,0.8h0.8V220.26z"/>
	<path class="st3" d="M114.88,218.52v5.6c0,0.14-0.11,0.25-0.25,0.25h-0.49c-0.14,0-0.25-0.11-0.25-0.25v-3.07h-1.59v3.07
		c0,0.14-0.11,0.25-0.25,0.25h-0.49c-0.14,0-0.25-0.11-0.25-0.25v-5.6c0-0.97,0.8-1.77,1.79-1.77
		C114.08,216.74,114.88,217.55,114.88,218.52 M113.9,218.52c0-0.43-0.35-0.78-0.79-0.78c-0.45,0-0.8,0.35-0.8,0.78v1.54h1.59V218.52
		z"/>
	<path class="st3" d="M120.43,218.52v4.06c0,0.99-0.79,1.79-1.77,1.79h-1.29c-0.26,0-0.49-0.23-0.49-0.49v-6.65
		c0-0.28,0.23-0.49,0.49-0.49h1.29C119.65,216.73,120.43,217.53,120.43,218.52 M119.45,218.52c0-0.44-0.35-0.8-0.79-0.8h-0.8v5.65
		h0.8c0.43,0,0.79-0.36,0.79-0.79V218.52z"/>
	<path class="st3" d="M125.97,216.99v4.8c0,0.35-0.11,0.69-0.29,0.99l-0.83,1.47c-0.05,0.08-0.12,0.12-0.22,0.12h-0.87
		c-0.09,0-0.17-0.05-0.21-0.12l-0.83-1.47c-0.18-0.29-0.29-0.63-0.29-0.99v-4.8c0-0.14,0.11-0.25,0.25-0.25h0.49
		c0.14,0,0.25,0.11,0.25,0.25v4.8c0,0.09,0.02,0.17,0.05,0.25l0.74,1.33l0.75-1.33c0.02-0.08,0.03-0.15,0.03-0.25v-4.8
		c0-0.14,0.12-0.25,0.25-0.25h0.49C125.86,216.74,125.97,216.85,125.97,216.99"/>
	<path class="st3" d="M128.96,224.12c0,0.14-0.11,0.25-0.25,0.25h-0.49c-0.14,0-0.25-0.11-0.25-0.25v-7.14
		c0-0.14,0.11-0.25,0.25-0.25h0.49c0.12,0,0.25,0.11,0.25,0.25V224.12z"/>
	<path class="st3" d="M131.94,217.72v2.33h1.34c0.14,0,0.25,0.11,0.25,0.25v0.49c0,0.14-0.11,0.25-0.25,0.25h-1.34v2.34h1.34
		c0.14,0,0.25,0.11,0.25,0.25v0.49c0,0.14-0.11,0.25-0.25,0.25h-1.83c-0.28,0-0.49-0.23-0.49-0.49v-6.65c0-0.28,0.22-0.49,0.49-0.49
		h1.83c0.14,0,0.25,0.11,0.25,0.25v0.49c0,0.14-0.11,0.25-0.25,0.25H131.94z"/>
	<path class="st3" d="M137.92,219.03v-0.52c0-0.43-0.36-0.79-0.79-0.79c-0.43,0-0.79,0.36-0.79,0.79c0,0.2,0,0.2,0.05,0.26
		l2.14,2.84c0.37,0.49,0.37,0.49,0.37,0.99c0,0.97-0.8,1.77-1.77,1.77c-0.97,0-1.77-0.8-1.77-1.77v-0.52c0-0.14,0.11-0.25,0.25-0.25
		h0.49c0.14,0,0.25,0.11,0.25,0.25v0.52c0,0.43,0.35,0.79,0.79,0.79c0.43,0,0.79-0.35,0.79-0.79c0-0.2,0-0.2-0.05-0.26l-2.14-2.84
		c-0.37-0.49-0.37-0.49-0.37-0.99c0-0.97,0.8-1.77,1.77-1.77c0.97,0,1.77,0.8,1.77,1.77v0.52c0,0.14-0.11,0.25-0.25,0.25h-0.49
		C138.03,219.27,137.92,219.17,137.92,219.03"/>
	<polygon class="st3" points="19.59,238.91 21.71,235.69 19.79,235.69 19.79,234.54 23.41,234.54 23.41,235.38 21.28,238.59 
		23.42,238.59 23.42,239.74 19.59,239.74 	"/>
	<polygon class="st3" points="26.64,234.54 30,234.54 30,235.69 28.02,235.69 28.02,236.51 29.71,236.51 29.71,237.66 28.02,237.66 
		28.02,238.59 30.08,238.59 30.08,239.74 26.64,239.74 	"/>
	<polygon class="st3" points="33.49,234.54 34.86,234.54 34.86,236.48 34.9,236.48 36.21,234.54 37.71,234.54 36.16,236.65 
		38.01,239.74 36.51,239.74 35.36,237.74 34.86,238.45 34.86,239.74 33.49,239.74 	"/>
	<polygon class="st3" points="40.91,234.54 44.27,234.54 44.27,235.69 42.29,235.69 42.29,236.51 43.98,236.51 43.98,237.66 
		42.29,237.66 42.29,238.59 44.35,238.59 44.35,239.74 40.91,239.74 	"/>
	<path class="st3" d="M50.56,239.74l-0.9-1.74h-0.53v1.74h-1.38v-5.2h1.97c1.12,0,2.08,0.38,2.08,1.68c0,0.74-0.34,1.23-0.84,1.5
		l1.13,2.02H50.56z M49.14,236.91h0.5c0.54,0,0.83-0.24,0.83-0.69s-0.29-0.59-0.83-0.59h-0.5V236.91z"/>
	<path class="st3" d="M58.62,234.54h1.45l0.54,2.27c0.14,0.55,0.24,1.09,0.38,1.65h0.03c0.14-0.56,0.25-1.1,0.38-1.65l0.53-2.27
		h1.41l-1.53,5.2h-1.66L58.62,234.54z"/>
	<path class="st3" d="M66.03,237.12c0-1.71,0.98-2.67,2.42-2.67c1.44,0,2.41,0.97,2.41,2.67c0,1.71-0.98,2.72-2.41,2.72
		C67.01,239.84,66.03,238.83,66.03,237.12 M69.45,237.12c0-0.94-0.38-1.49-1.01-1.49c-0.62,0-1.01,0.54-1.01,1.49
		c0,0.94,0.38,1.54,1.01,1.54C69.07,238.65,69.45,238.06,69.45,237.12"/>
	<path class="st3" d="M73.97,237.12c0-1.71,0.98-2.67,2.42-2.67c1.44,0,2.41,0.97,2.41,2.67c0,1.71-0.98,2.72-2.41,2.72
		C74.94,239.84,73.97,238.83,73.97,237.12 M77.39,237.12c0-0.94-0.38-1.49-1.01-1.49c-0.62,0-1.01,0.54-1.01,1.49
		c0,0.94,0.39,1.54,1.01,1.54C77.01,238.65,77.39,238.06,77.39,237.12"/>
	<path class="st3" d="M84.93,239.74l-0.9-1.74H83.5v1.74h-1.38v-5.2h1.97c1.12,0,2.08,0.38,2.08,1.68c0,0.74-0.34,1.23-0.84,1.5
		l1.13,2.02H84.93z M83.5,236.91H84c0.54,0,0.83-0.24,0.83-0.69s-0.29-0.59-0.83-0.59H83.5V236.91z"/>
	<polygon class="st3" points="93.33,238.91 95.45,235.69 93.54,235.69 93.54,234.54 97.15,234.54 97.15,235.38 95.02,238.59 
		97.17,238.59 97.17,239.74 93.33,239.74 	"/>
	<path class="st3" d="M100.16,237.12c0-1.71,0.98-2.67,2.41-2.67c1.44,0,2.42,0.97,2.42,2.67c0,1.71-0.98,2.72-2.42,2.72
		C101.13,239.84,100.16,238.83,100.16,237.12 M103.58,237.12c0-0.94-0.38-1.49-1.01-1.49c-0.62,0-1.01,0.54-1.01,1.49
		c0,0.94,0.39,1.54,1.01,1.54C103.2,238.65,103.58,238.06,103.58,237.12"/>
	<path class="st3" d="M111.12,239.74l-0.9-1.74h-0.53v1.74h-1.38v-5.2h1.97c1.12,0,2.08,0.38,2.08,1.68c0,0.74-0.34,1.23-0.84,1.5
		l1.13,2.02H111.12z M109.69,236.91h0.5c0.54,0,0.83-0.24,0.83-0.69s-0.29-0.59-0.83-0.59h-0.5V236.91z"/>
	<path class="st3" d="M118.16,234.45c0.74,0,1.3,0.32,1.66,0.69l-0.75,0.85c-0.26-0.22-0.48-0.35-0.9-0.35
		c-0.7,0-1.23,0.56-1.23,1.5c0,0.98,0.43,1.52,1.36,1.52c0.14,0,0.3-0.03,0.4-0.1v-0.72h-0.77v-1.12h1.98v2.48
		c-0.39,0.32-1.06,0.64-1.79,0.64c-1.42,0-2.59-0.88-2.59-2.65C115.53,235.44,116.73,234.45,118.16,234.45"/>
	<rect x="0.58" y="228.94" class="st3" width="138.34" height="1"/>
	<path class="st2" d="M55.91,10.95c0,0,4.64,11.74,9.52,17.88c4.88,6.14,6.59,15.94,2.46,21.72c-4.13,5.78-15.34,6.86-19.56,2.25
		c-4.23-4.61-8.13-11.58-4.09-19.55C48.3,25.29,54.73,18.97,55.91,10.95"/>
	<path class="st5" d="M60.49,36.14c-3.21,1.58-3.19,6.8-0.89,7.86c2.88,1.32,7.14-0.88,7.33-3.52
		C67.24,36.16,64.17,34.34,60.49,36.14"/>
	<path class="st3" d="M20.31,77.75C14.7,75.78,6.4,78.52,4.57,85.64c-1.52,5.93,1.6,12.32,10.27,13.23
		c6.99,0.74,10.95-4.92,12.09-9.42C28.07,84.96,25.85,79.71,20.31,77.75"/>
	<path class="st5" d="M26.43,71.67c-2.82,0.71-5.47,4.07-4.29,7.47c0.99,2.83,3.98,4.59,7.77,2.63c3.05-1.59,3.14-4.97,2.39-7.11
		C31.55,72.51,29.22,70.97,26.43,71.67"/>
	<path class="st5" d="M35.92,77.86c-1.58,0.4-3.06,2.28-2.4,4.18c0.55,1.58,2.23,2.57,4.34,1.47c1.7-0.89,1.75-2.78,1.33-3.97
		C38.78,78.33,37.48,77.47,35.92,77.86"/>
	<path class="st2" d="M135.51,126.14c-2.75-2.5-5.25-5.22-7.63-8.07c-2.96-3.54-4.03-7.49-4.78-11.96
		c-0.78-4.68-2.41-9.19-4.27-13.54c-1.62-3.78-3.42-8.59-6.59-11.3c-0.63-0.54-1.46,0.09-1.28,0.84c1.18,4.83,4.62,9.23,6.52,13.91
		c1.89,4.66,2.78,9.4,3.77,14.29c1.67,8.25,8,11.34,14.21,15.87C135.5,126.21,135.54,126.17,135.51,126.14"/>
	<path class="st2" d="M130.23,103.25c-0.48-3.99-1.68-8.67-4.91-11.44c-1.49-1.27-3.03-2.17-4.81-2.99
		c-2.13-0.98-4.16-2.31-6.31-3.17c-0.73-0.29-1.4,0.42-1,1.12c1.42,2.5,4.86,3.23,7.36,4.29c4.62,1.97,8.5,7.31,9.56,12.21
		C130.13,103.33,130.24,103.31,130.23,103.25"/>
	<path class="st2" d="M119.78,97.62c0.16,5.12,4.24,8.6,7.13,12.43c1.6,2.11,2.03,4.6,3.85,6.54c1.56,1.67,5.3,1.18,7.19,1.6
		c0.31,0.07,0.44-0.36,0.18-0.51c-2.42-1.38-5.21-0.36-7.25-2.81c-1.32-1.58-0.93-4.3-2.09-6.07c-2.66-4.07-6.88-6.65-8.82-11.23
		C119.92,97.48,119.78,97.51,119.78,97.62"/>
	<path class="st2" d="M122.5,112.58c-0.2,5.51-1.2,10.13,3.68,13.85c2.14,1.63,4.52,2.72,6.56,4.52c1.31,1.16,2.7,2.2,4.49,2.15
		c0.27-0.01,0.37-0.42,0.11-0.54c-2.97-1.28-4.98-4.1-7.78-5.77c-1.96-1.17-3.68-2.22-4.98-4.15c-1.98-2.92-0.7-6.88-0.82-10.13
		C123.73,111.69,122.53,111.78,122.5,112.58"/>
	<path class="st2" d="M115.83,116.73c0.65-3.68-0.57-7.37-0.14-11.16c0.41-3.64,1.77-7.13,1.89-10.8c0.02-0.67-0.96-0.67-1.12-0.09
		c-1.07,3.86-2,7.95-2.32,11.95c-0.27,3.32,0.87,6.92,1.64,10.11C115.79,116.76,115.82,116.76,115.83,116.73"/>
	<path class="st1" d="M32.95,12.64c7-4.21,9.61-16.82,11.41-21.8h-9.25c0,0-0.5,2.08-1.45,5.04c-0.33,1.02-1.36,3.62-1.36,3.62
		c-2.89,5.66-6.94,9.6-15.74,7.6C10.97,5.83,6.04,3.13,0.58,1.82v7.15c4.75,1.82,9.42,4.76,13.76,6.16
		C20.41,17.1,27.54,15.9,32.95,12.64"/>
	<path class="st6" d="M138.9-1.74c-1.02,0.76-3.27,2.41-4.68,3.69c-8.44,7.68-17.59,16.29-22.62,31.69
		c-3.91,11.95,3.3,29.03,4.02,29.16c19,3.37,12.02-13.16,10.88-19.62c-1.7-9.6,5.15-21.62,12.41-29.88v-13.8L138.9-1.74z"/>
	<path class="st6" d="M46.87,68.45c19.62,9.04,22.52,16.07,22.52,16.07s-2.54-16.56-26.03-25.41c-20.65-7.77-33.24-5.92-42.78-2.83
		v8.36C12.22,61.79,29.98,60.67,46.87,68.45"/>
	<path class="st6" d="M37.97,106.68c15.96-5.89,30.22-17.2,29.6-17.69c-0.62-0.49-11.62-17.33-40.29-21.51
		c-10.16-1.48-19.11-0.31-26.7,1.97v2.64c7.57-2.4,16.66-3.78,26.85-2.29c25.48,3.72,36.91,18.68,37.46,19.12
		c0.55,0.44-15.43,11.32-29.61,16.55c-8.1,2.99-22.53,2.7-34.7,0.76v2.46C13.34,110.65,28.38,110.22,37.97,106.68"/>
	<path class="st3" d="M15.17,131.93c0,0,0.28-0.87,0.22-2.01C15.14,131.06,15.17,131.93,15.17,131.93"/>
	<path class="st3" d="M60.12,138.04c-0.17-0.21-0.28-0.32-0.28-0.32S59.94,137.84,60.12,138.04"/>
	<path class="st3" d="M31.3,130.86c0.02,0.19,0.04,0.3,0.04,0.3S31.33,131.05,31.3,130.86"/>
	<path class="st4" d="M29.16,138.87c13.68-1.86,28.6-6.37,39.5-15.19c5.9-4.77,10.06-10.39,14.77-16.22
		c2.23-2.76,4.83-5.03,7.79-6.98c6.02-3.96,10.23-1.06,14.52,3.42c0.69,0.72,1.7-0.19,1.31-1.01c-5.06-10.69-15.83-4.92-22.08,1.07
		c-5.21,5-9.24,10.92-14.77,15.65c-6.49,5.55-14.5,9.35-22.49,12.16c-15.07,5.31-31.25,6.52-47.14,5.35v2.65
		C10.08,140.41,19.63,140.17,29.16,138.87"/>
	<path class="st4" d="M92.96,120.04c-1.23,0.3-1.23,2.17,0,2.47c6.33,1.56,5.31,19.77,5.48,24.55c0.25,6.77,0.26,13.54,0.18,20.31
		h3.64C102.92,149.74,103.05,117.55,92.96,120.04"/>
	<path class="st4" d="M136.19,163.26c-0.11-1.73-2.86-1.56-2.67,0.15c0.07,0.61,0.19,3.04,0.89,3.95h1.37
		C136.69,166.47,136.26,164.29,136.19,163.26"/>
	<path class="st4" d="M129.92,167.36h2.55c-0.04-0.07-0.09-0.15-0.16-0.21C131.63,166.5,130.69,166.88,129.92,167.36"/>
	<path class="st4" d="M130.82,162.39c-0.46-0.33-1.01-0.44-1.51-0.11c-0.52,0.34-0.78,1.19-0.35,1.71c0.55,0.68,1.33,1.55,2.23,1.74
		c0.52,0.11,1.61-0.23,1.39-0.95C132.28,163.88,131.6,162.95,130.82,162.39"/>
	<path class="st4" d="M133.62,156.35c-0.68-0.15-1.61,0.31-1.68,1.08c-0.08,0.81-0.37,1.9-0.04,2.69c0.2,0.48,0.69,1.44,1.4,1.13
		c1.14-0.51,1.3-2.13,1.4-3.22C134.78,157.27,134.44,156.53,133.62,156.35"/>
	<path class="st4" d="M134.96,155.45c0.26,0.99,0.53,2,1.18,2.82c0.32,0.41,1.21,1.19,1.72,0.58c0.92-1.1,0.1-3.11-0.26-4.29
		C137.07,152.83,134.52,153.73,134.96,155.45"/>
	<path class="st4" d="M130.04,150.5c-0.89,1.12-1.26,2.86-1.2,4.24c0.01,0.38,0.35,0.64,0.72,0.64c1.67-0.01,2.42-1.86,2.91-3.22
		c0.23-0.64,0.21-1.29-0.33-1.78C131.55,149.87,130.54,149.87,130.04,150.5"/>
	<path class="st4" d="M137.83,150.38c1.03-1.28-1.08-3.32-1.8-4.27c-1.05-1.4-3.16-0.02-2.27,1.5
		C134.15,148.25,136.94,151.48,137.83,150.38"/>
	<path class="st4" d="M130.74,149.53c0.02,0,0.04,0,0.06,0c0.41,0.01,0.78-0.29,0.97-0.63c0.48-0.9,0.88-2.24,0.9-3.27
		c0.01-1.36-1.67-1.65-2.49-0.87c-0.58,0.54-0.59,1.55-0.65,2.29C129.45,147.98,129.48,149.5,130.74,149.53"/>
	<path class="st4" d="M136.77,137.39c-0.83,0.23-1.23,1.18-1.52,1.92c-0.35,0.88-0.68,1.95-0.32,2.88c0.28,0.7,1.19,0.94,1.72,0.35
		c0.51-0.57,0.74-1.3,1.06-1.98c0.3-0.64,0.82-1.28,0.78-2.01C138.45,137.68,137.58,137.17,136.77,137.39"/>
	<path class="st4" d="M131.96,142.02c0.4,0.28,0.8,0.26,1.16-0.06c1.02-0.92-0.01-2.86-0.51-3.76c-0.81-1.46-3.33-0.25-2.64,1.29
		C130.37,140.44,131.11,141.43,131.96,142.02"/>
	<path class="st4" d="M126.48,143.46c-0.15,0.75-0.15,1.6-0.12,2.38c0.02,0.69,0.13,1.63,0.75,2.06c0.29,0.21,0.71,0.26,0.97-0.05
		c0.42-0.51,0.52-1.18,0.67-1.81c0.17-0.74,0.36-1.6,0.33-2.36C128.99,142.19,126.77,142.01,126.48,143.46"/>
	<path class="st6" d="M22.63,37.01c2.4,4.2,4.51,9.23,9.34,11.19c4.55,1.85,9.27,1.72,13.68-0.43c8.38-4.08,10.07-15.16,17.78-19.42
		c9.95-5.49,18.49,1.72,23.01,12.05c0.21,0.77,0.45,1.57,0.72,2.38c2.61,7.96,0.17,24.7,0.17,24.7c-7.51,10.62-1.63,26.09,5.3,35.95
		c11.66,16.6,19.33,16.57,18.85-1.42c-0.47-17.91,5.12-15.4,8.47-24.84c4.09-11.52-2.19-19.14-12.49-16.69
		c-10.7,2.54-6.77-10.56-10.73-18.3c-2.73-5.34-4.95-8.85-6.69-10.94C82,19,65.15,12.57,54.19,26.87
		c-5.26,6.86-11.78,26.61-23.31,14.76c-4.15-4.27-5.12-10.39-10.02-14.24c-4.43-3.47-11.39-3.76-16.38-1.43
		c-1.4,0.65-2.68,1.43-3.9,2.29v9.46C8.12,30.5,15.91,25.24,22.63,37.01"/>
	<path class="st1" d="M82.45,58.2c0,0,2.77,7,5.68,10.66c2.91,3.66,3.93,9.5,1.47,12.95c-2.47,3.45-9.15,4.09-11.67,1.34
		c-2.52-2.75-4.85-6.91-2.43-11.66C77.91,66.75,81.74,62.98,82.45,58.2"/>
	<path class="st5" d="M86.15,72.25c-1.53,0.01-2.49,2.03-1.8,2.87c0.86,1.04,2.92,0.98,3.48,0C88.74,73.51,87.9,72.23,86.15,72.25"
		/>
	<g class="st0">
		<g>
			<defs>
				<rect id="SVGID_7_" x="-8116.75" y="-9.25" width="16383" height="0.1"/>
			</defs>
			<clipPath id="SVGID_8_">
				<use xlink:href="#SVGID_7_"  style="overflow:visible;"/>
			</clipPath>
		</g>
	</g>
</g>
</svg>
