<?xml version="1.0" encoding="utf-8"?>
<!-- Generator: Adobe Illustrator 25.2.3, SVG Export Plug-In . SVG Version: 6.00 Build 0)  -->
<svg version="1.1" id="Layer_1" xmlns="http://www.w3.org/2000/svg" xmlns:xlink="http://www.w3.org/1999/xlink" x="0px" y="0px"
	 viewBox="0 0 345 395.7" style="enable-background:new 0 0 345 395.7;" xml:space="preserve">
<style type="text/css">
	.st0{clip-path:url(#SVGID_2_);}
	.st1{clip-path:url(#SVGID_4_);fill:#E25289;}
	.st2{clip-path:url(#SVGID_4_);fill:#FCE31B;}
	.st3{clip-path:url(#SVGID_4_);fill:#05647E;}
	.st4{clip-path:url(#SVGID_4_);fill:#D5B1D3;}
	.st5{clip-path:url(#SVGID_4_);fill:#FFFFFF;}
	.st6{clip-path:url(#SVGID_4_);fill:#849741;}
	.st7{opacity:0.9;clip-path:url(#SVGID_2_);fill:#FFFFFF;}
	.st8{fill:#05647E;}
	.st9{fill:#E25289;}
</style>
<g>
	<defs>
		<polygon id="SVGID_1_" points="172.8,3.3 339.8,86.8 339.8,305.8 172.8,389.3 5.9,305.8 5.9,86.8 		"/>
	</defs>
	<use xlink:href="#SVGID_1_"  style="overflow:visible;fill:#FFFFFF;"/>
	<clipPath id="SVGID_2_">
		<use xlink:href="#SVGID_1_"  style="overflow:visible;"/>
	</clipPath>
	<g id="logo" class="st0">
		<defs>
			<rect id="SVGID_3_" x="3.9" y="14.4" width="337.3" height="386"/>
		</defs>
		<clipPath id="SVGID_4_">
			<use xlink:href="#SVGID_3_"  style="overflow:visible;"/>
		</clipPath>
		<path class="st1" d="M306.1,19.6"/>
		<path class="st1" d="M306.1,19.6c0.7,3.3,5.8,3.2,6.6,0"/>
		<path class="st2" d="M254.3,271.6c-26.4-12.8-106.2,18.5-135.2,26.2C93.7,304.6,49.7,329.2,3.9,328v62.1h266.3
			C269.8,344.1,276.1,282.1,254.3,271.6"/>
		<path class="st1" d="M222.7,266.2c-35.1-20.8-96.2-3.3-73.9,52c0,0-22.3,22.3-10.1,40.9c-10.7,4.2-23.1,14-33.5,31.1h8.1h35.2
			h94.8C257.4,344.2,253.4,284.4,222.7,266.2"/>
		<path class="st3" d="M272.7,380.7c0,0,15.5-4.4,12.7-16.9c-2.8-12.5-12.7-16.2-12.7-16.2s14-4.8,12.6-18.8
			c-1.4-13.9-17.7-20.3-17.7-20.3s14.8-11.1,12.4-24.9c-2.3-13.8-17.8-14.7-17.8-14.7c5.3-6.9,20.2-9.5-6.1-35.1
			c-20.6-20-23.3-0.7-30.7,4.4c-7.4,5.1,0,27.5,0,27.5l-5,32.7c-0.6,19.2,12.6,21.6,12.6,21.6s-18.6,4.4-18.6,23.2
			c0,12.7,18.9,17.1,18.9,17.1s-20.3,8-16.7,25.9c0.3,1.4,0.6,2.7,1.1,3.9h66.8C281,382.8,272.7,380.7,272.7,380.7"/>
		<path class="st3" d="M15.6,352c0,0,7.6,30.7,27.7,1.2c0,0,2.9,13.7,18.8,11.1c20.4-3.4,18.7-16.7,18.7-16.7s5.2,14,20.5,10.9
			c20.8-4.1,15-22.8,15-22.8s12.8,15.9,27.4,7.5c16.1-9.3,8-21.4,5.4-24.6c-0.4-0.5-0.7-0.8-0.7-0.8s0.3,0.3,0.7,0.8
			c2.7,3,13.4,13.5,26.3,6.6c15-8,4.4-23.4,4.4-23.4s15.6,11.1,26.2,6.3c10.6-4.8,4.4-22.3,4.4-22.3s12.9,13.4,27-5.9
			c14.1-19.3,0-34.3,0-34.3s20.8,6.6,27.9-12.4c7.2-19-21.1-56.5-47.1-37.7c0,0-30.3-0.6-18,21.5c0,0-12.6-0.7-20.5,7.7
			c-7.8,8.4-2.6,21-2.6,21s-15.3-7.7-24.2-0.5c-8.9,7.1-3.2,23.2-3.2,23.2s-13-11-24.7-4.8c-11.7,6.2-7.4,22.3-7.4,22.3
			s-9.8-14.6-23.5-8.4c-16,7.3-15.7,20.5-15.3,23.7c0.1,0.5,0.1,0.7,0.1,0.7s0-0.3-0.1-0.7c-0.5-3.1-3.7-15.3-21.1-15.3
			c-12.6,0-16.4,7.7-17.6,13.1c0.2,2.8-0.5,4.9-0.5,4.9s-0.1-2.1,0.5-4.9c-0.3-4.8-3.2-11.7-16.8-13.1c-9.2-0.9-15.3,1.2-19.3,3.8
			v74.1C13,361.1,15.6,352,15.6,352"/>
		<path class="st4" d="M32.8,248.1c3.3,0.2,6.6,0.4,9.8,0.6c9.2,0.2,18.2-0.9,27.2-2.3c1.6-1,3.4-1.6,5.4-1.6c0.1,0,0.2,0,0.3,0
			c0.1,0,0.1,0,0.1,0c0.5-0.1,1.1-0.3,1.6-0.5c1.3-0.5,2.6-1,4-1.4c0.9-0.3,1.8-0.5,2.7-0.6c10.5-12.8,15.4-30.5,15.4-46.9
			c0-18.9-8.1-33.3-19.3-43c-13.1-2-26.3-4-39.6-3.8c-10.1,0.2-19.9,1.6-29.8,3.7c-2,0.4-4.4,0.7-6.8,1v91c2.9,0.1,5.7,0.3,8.5,0.8
			C19.2,246.4,25.9,247.6,32.8,248.1"/>
		<path class="st2" d="M12,210.3c0.7,1.9-6.3,6.8-6.3,6.8s7-2.8,8.3-1c1.6,2.2-9.8,9.2-9.8,9.2s9.9-4.8,11.5-2.6
			c1.5,2.2-7,13.6-7,13.6s8.3-9.6,11.1-9.1c2.8,0.5,0.8,9.1,0.8,9.1s3.4-9.2,6.3-8.1c2.5,1,0,11.3,0,11.3s4.9-9.2,6.9-9
			c4.3,0.5,4.3,11,4.3,11s1.1-11.6,3.7-11.8c2.3-0.3,3.2,7.7,3.2,7.7s0.2-7.7,2.6-8.2c2.7-0.6,7.3,11.2,7.3,11.2s-4-12-2.3-13.3
			c1.8-1.2,10.3,13.3,10.3,13.3s-5-13-3.1-16c1.9-3,14.8,8.1,14.8,8.1s-9.1-9.9-7.7-13.7c1.1-3.1,6.3-1.2,8.2-0.3
			c-2.1-1-7.8-4-6.3-6.5c1.8-3,11.1,0,11.1,0s-9-4.9-8.3-7.3c0.8-2.8,14.6-2.1,14.6-2.1s-11.5-2.9-11.5-5c0-5,11.5-5.6,11.5-5.6
			s-9.9-0.6-11.1-4.1c-0.6-2,7.6-6.4,7.6-6.4s-10.7,2.5-11.7,0c-1.4-3.6,7.6-16.1,7.6-16.1s-7.7,8-11.7,6.6
			c-3.9-1.3,1.1-15.7,1.1-15.7s-6.5,13.1-9.8,11.3c-3.3-1.8-1.5-7.1-1-11.3c0,0-5.6,11.3-9.6,9.3c-4-2-4-12.9-4-12.9
			s-2.3,11.7-5.4,12.5c-3.1,0.8-5.2-7.5-5.2-7.5s0.8,10-2.3,10.5c-3,0.5-9.3-10.5-9.3-10.5s4,10.5,2.3,12.5c-1.8,2-7.6-2.8-7.6-2.8
			s3.3,5.3,1,7.1c-2.3,1.8-12.3-4.3-12.3-4.3s9.1,9.6,7.3,11.6c-1.1,1.2-5.2-0.1-8.1-1.3v1.6c1.8,1.9,3.7,4.1,3.4,5.1
			c-0.2,0.7-1.7,1.1-3.4,1.5v2.7c1.7,0.6,3.1,1.3,3.1,1.8c-0.1,0.7-1.4,1.5-3.1,2.2v4.6c2.9,0.6,5.3,1.5,5.3,2.7
			c0.1,1.8-2.4,3.7-5.3,5.3v2.2C7.9,209.6,11.6,209.3,12,210.3"/>
		<path class="st1" d="M237.3,19.2c4.2,7.6,7.9,15.3,12.2,22.6c-13.4,23.9-10.7,58.9-10.7,58.9c7.4,62.8,43,69.4,43,69.4
			c2.9,28.4-35,76.3-35,76.3c5.3,18.9,27.4,43.8,61.6,55.3c0.3,13.8,1.1,49.4,1.5,88.4h31.2V60.6C330.7,38.3,308.2,20.5,286,20"/>
		<path class="st2" d="M138.8,8.6c0,0,11.3,28.6,23.2,43.6c11.9,15,16.1,38.9,6,53c-10.1,14.1-37.4,16.7-47.7,5.5
			c-10.3-11.2-19.8-28.3-10-47.7C120.2,43.6,135.9,28.2,138.8,8.6"/>
		<path class="st5" d="M150,70.1c-7.8,3.9-7.8,16.6-2.2,19.2c7,3.2,17.4-2.1,17.9-8.6C166.4,70.1,158.9,65.7,150,70.1"/>
		<path class="st3" d="M52,171.6c-13.7-4.8-33.9,1.9-38.4,19.2c-3.7,14.5,3.9,30.1,25,32.3c17,1.8,26.7-12,29.5-23
			C70.9,189.1,65.5,176.3,52,171.6"/>
		<path class="st5" d="M66.9,156.7c-6.9,1.7-13.3,9.9-10.5,18.2c2.4,6.9,9.7,11.2,18.9,6.4c7.4-3.9,7.7-12.1,5.8-17.4
			C79.4,158.8,73.7,155,66.9,156.7"/>
		<path class="st5" d="M90.1,171.8c-3.9,1-7.5,5.6-5.9,10.2c1.3,3.9,5.4,6.3,10.6,3.6c4.2-2.2,4.3-6.8,3.3-9.7
			C97,173,93.9,170.9,90.1,171.8"/>
		<path class="st2" d="M332.8,289.6c-6.7-6.1-12.8-12.7-18.6-19.7c-7.2-8.6-9.8-18.3-11.6-29.2c-1.9-11.4-5.9-22.4-10.4-33
			c-3.9-9.2-8.3-21-16.1-27.6c-1.5-1.3-3.6,0.2-3.1,2c2.9,11.8,11.3,22.5,15.9,33.9c4.6,11.4,6.8,22.9,9.2,34.9
			c4.1,20.1,19.5,27.7,34.6,38.7C332.8,289.8,332.9,289.7,332.8,289.6"/>
		<path class="st2" d="M320,233.8c-1.2-9.7-4.1-21.2-12-27.9c-3.6-3.1-7.4-5.3-11.7-7.3c-5.2-2.4-10.1-5.6-15.4-7.7
			c-1.8-0.7-3.4,1-2.4,2.7c3.5,6.1,11.9,7.9,17.9,10.5c11.3,4.8,20.7,17.8,23.3,29.8C319.7,234,320,233.9,320,233.8"/>
		<path class="st2" d="M294.5,220c0.4,12.5,10.3,21,17.4,30.3c3.9,5.1,4.9,11.2,9.4,16c3.8,4.1,12.9,2.9,17.5,3.9
			c0.7,0.2,1.1-0.9,0.4-1.2c-5.9-3.4-12.7-0.9-17.7-6.9c-3.2-3.9-2.3-10.5-5.1-14.8c-6.5-9.9-16.8-16.2-21.5-27.4
			C294.8,219.7,294.5,219.8,294.5,220"/>
		<path class="st2" d="M301.1,256.5c-0.5,13.4-2.9,24.7,9,33.8c5.2,4,11,6.6,16,11c3.2,2.8,6.6,5.4,10.9,5.2c0.7,0,0.9-1,0.3-1.3
			c-7.2-3.1-12.1-10-19-14.1c-4.8-2.8-9-5.4-12.1-10.1c-4.8-7.1-1.7-16.8-2-24.7C304.1,254.3,301.2,254.6,301.1,256.5"/>
		<path class="st2" d="M284.8,266.7c1.6-9-1.4-18-0.3-27.2c1-8.9,4.3-17.4,4.6-26.4c0.1-1.6-2.3-1.6-2.7-0.2
			c-2.6,9.4-4.9,19.4-5.7,29.1c-0.7,8.1,2.1,16.9,4,24.7C284.7,266.7,284.8,266.7,284.8,266.7"/>
		<path class="st6" d="M341.1-22.3c-2.5,1.9-8,5.9-11.4,9C309.1,5.4,286.8,26.4,274.5,64c-9.5,29.1,8,70.8,9.8,71.1
			c46.3,8.2,29.3-32.1,26.5-47.9c-4.1-23.4,12.6-52.7,30.3-72.9v-33.7L341.1-22.3z"/>
		<path class="st6" d="M116.8,148.9c47.8,22.1,54.9,39.2,54.9,39.2s-6.2-40.4-63.4-62c-50.3-19-81-14.5-104.3-6.9v20.4
			C32.3,132.6,75.6,129.9,116.8,148.9"/>
		<path class="st6" d="M95.1,242.1c38.9-14.4,73.7-42,72.1-43.2c-1.5-1.2-28.3-42.3-98.2-52.5c-24.8-3.6-46.6-0.8-65.1,4.8v6.4
			c18.4-5.9,40.6-9.2,65.4-5.6c62.1,9.1,90,45.6,91.3,46.6c1.3,1.1-37.6,27.6-72.2,40.4c-19.7,7.3-54.9,6.6-84.6,1.8v6
			C35,251.8,71.7,250.8,95.1,242.1"/>
		<path class="st3" d="M39.5,303.7c0,0,0.7-2.1,0.5-4.9C39.4,301.6,39.5,303.7,39.5,303.7"/>
		<path class="st3" d="M149.1,318.6c-0.4-0.5-0.7-0.8-0.7-0.8S148.6,318.1,149.1,318.6"/>
		<path class="st3" d="M78.8,301.1c0,0.5,0.1,0.7,0.1,0.7S78.9,301.6,78.8,301.1"/>
		<path class="st4" d="M73.6,320.7c33.4-4.5,69.7-15.5,96.3-37c14.4-11.6,24.5-25.3,36-39.6c5.4-6.7,11.8-12.3,19-17
			c14.7-9.7,24.9-2.6,35.4,8.3c1.7,1.8,4.1-0.5,3.2-2.5c-12.3-26.1-38.6-12-53.8,2.6c-12.7,12.2-22.5,26.6-36,38.2
			c-15.8,13.5-35.4,22.8-54.8,29.7c-36.7,12.9-76.2,15.9-114.9,13v6.5C27.1,324.4,50.4,323.8,73.6,320.7"/>
		<path class="st4" d="M229.1,274.7c-3,0.7-3,5.3,0,6c15.4,3.8,12.9,48.2,13.4,59.9c0.6,16.5,0.6,33,0.4,49.5h8.9
			C253.4,347.2,253.7,268.6,229.1,274.7"/>
		<path class="st6" d="M57.7,72.2c5.8,10.2,11,22.5,22.8,27.3c11.1,4.5,22.6,4.2,33.4-1c20.4-10,24.5-37,43.3-47.4
			c24.2-13.4,45.1,4.2,56.1,29.4c0.5,1.9,1.1,3.8,1.8,5.8c6.4,19.4,0.4,60.3,0.4,60.3c-18.3,25.9-4,63.6,12.9,87.7
			c28.4,40.5,47.1,40.4,45.9-3.5c-1.2-43.7,12.5-37.6,20.6-60.6c10-28.1-5.3-46.7-30.5-40.7c-26.1,6.2-16.5-25.8-26.2-44.6
			c-6.7-13-12.1-21.6-16.3-26.7c-19.6-29.9-60.6-45.5-87.4-10.7c-12.8,16.7-28.7,64.9-56.8,36C67.7,73.1,65.3,58.1,53.4,48.7
			c-10.8-8.5-27.8-9.2-39.9-3.5c-3.4,1.6-6.5,3.5-9.5,5.6v23.1C22.3,56.3,41.3,43.5,57.7,72.2"/>
		<path class="st1" d="M203.5,123.9c0,0,6.8,17.1,13.8,26c7.1,8.9,9.6,23.2,3.6,31.6c-6,8.4-22.3,10-28.4,3.3
			c-6.1-6.7-11.8-16.8-5.9-28.4C192.4,144.7,201.8,135.5,203.5,123.9"/>
		<path class="st5" d="M212.5,158.1c-3.7,0-6.1,5-4.4,7c2.1,2.5,7.1,2.4,8.5,0C218.8,161.2,216.8,158.1,212.5,158.1"/>
	</g>
	<rect id="lower_opac" x="-0.6" y="281.2" class="st7" width="356" height="124.3"/>
	<rect id="upper_opac" x="-4.3" y="-14.1" class="st7" width="356" height="124.3"/>
	<use xlink:href="#SVGID_1_"  style="overflow:visible;fill:none;stroke:#05647E;stroke-width:2;stroke-miterlimit:10;"/>
</g>
<g id="Certe">
	<path class="st8" d="M104.2,54.9c5.2,0,9.7,2.5,12.6,5.5l-6,6.7c-2-1.8-3.8-2.8-6.5-2.8c-5,0-9.2,4.5-9.2,12
		c0,7.8,3.6,12.1,8.9,12.1c3.2,0,5.5-1.4,7.2-3.3l6,6.6c-3.5,4.1-8.3,6.1-13.3,6.1c-10.8,0-20-7-20-21.1
		C84,62.8,93.5,54.9,104.2,54.9"/>
	<polygon class="st8" points="123,55.6 149.7,55.6 149.7,64.8 133.9,64.8 133.9,71.3 147.4,71.3 147.4,80.4 133.9,80.4 133.9,87.8 
		150.3,87.8 150.3,97 123,97 	"/>
	<path class="st8" d="M180.5,97l-7.1-13.9h-4.2V97h-10.9V55.6h15.6c8.9,0,16.5,3.1,16.5,13.4c0,5.9-2.7,9.8-6.7,12l9,16H180.5z
		 M169.2,74.5h3.9c4.3,0,6.6-1.9,6.6-5.5c0-3.6-2.3-4.7-6.6-4.7h-3.9V74.5z"/>
	<polygon class="st8" points="205,64.8 194.1,64.8 194.1,55.6 226.9,55.6 226.9,64.8 215.9,64.8 215.9,97 205,97 	"/>
	<polygon class="st8" points="233,55.6 260.5,55.6 260.5,64.8 243.9,64.8 243.9,71.3 257.4,71.3 257.4,80.4 243.9,80.4 243.9,87.8 
		260.5,87.8 260.5,97 233,97 	"/>
</g>
<g>
	<path class="st9" d="M168.4,331.7c0,0.2-0.1,0.3-0.2,0.5c-0.1,0.1-0.3,0.2-0.5,0.3c-0.2,0.1-0.6,0.2-1,0.2s-1,0.1-1.6,0.1
		c-0.7,0-1.2,0-1.6-0.1s-0.8-0.1-1-0.2c-0.3-0.1-0.4-0.2-0.5-0.3c-0.1-0.1-0.1-0.3-0.1-0.5v-13.9c0-0.8-0.1-1.5-0.2-2.2
		c-0.1-0.7-0.4-1.2-0.7-1.7c-0.3-0.5-0.7-0.8-1.2-1.1c-0.5-0.3-1-0.4-1.7-0.4c-0.8,0-1.6,0.3-2.4,0.9c-0.8,0.6-1.7,1.5-2.6,2.7v15.6
		c0,0.2-0.1,0.3-0.2,0.5c-0.1,0.1-0.3,0.2-0.5,0.3c-0.3,0.1-0.6,0.2-1,0.2s-0.9,0.1-1.6,0.1c-0.7,0-1.2,0-1.6-0.1s-0.8-0.1-1-0.2
		c-0.3-0.1-0.4-0.2-0.5-0.3c-0.1-0.1-0.2-0.3-0.2-0.5v-13.9c0-0.8-0.1-1.5-0.2-2.2c-0.1-0.7-0.4-1.2-0.7-1.7
		c-0.3-0.5-0.7-0.8-1.2-1.1s-1-0.4-1.7-0.4c-0.8,0-1.6,0.3-2.4,0.9c-0.8,0.6-1.7,1.5-2.6,2.7v15.6c0,0.2-0.1,0.3-0.2,0.5
		c-0.1,0.1-0.3,0.2-0.5,0.3c-0.3,0.1-0.6,0.2-1,0.2s-1,0.1-1.6,0.1c-0.7,0-1.2,0-1.6-0.1s-0.8-0.1-1-0.2c-0.3-0.1-0.4-0.2-0.5-0.3
		c-0.1-0.1-0.2-0.3-0.2-0.5v-23.5c0-0.2,0-0.3,0.1-0.5c0.1-0.1,0.2-0.2,0.5-0.3c0.2-0.1,0.5-0.2,0.9-0.2c0.4,0,0.8-0.1,1.4-0.1
		c0.6,0,1,0,1.4,0.1s0.7,0.1,0.9,0.2c0.2,0.1,0.3,0.2,0.4,0.3c0.1,0.1,0.1,0.3,0.1,0.5v2.7c1.3-1.4,2.6-2.5,3.9-3.2s2.6-1.1,4-1.1
		c1,0,1.8,0.1,2.6,0.3c0.8,0.2,1.5,0.5,2.1,0.9c0.6,0.4,1.1,0.8,1.6,1.4c0.4,0.5,0.8,1.1,1.1,1.8c0.7-0.8,1.4-1.4,2.1-2
		c0.7-0.5,1.3-1,2-1.3c0.7-0.3,1.3-0.6,2-0.8s1.3-0.3,2-0.3c1.6,0,2.9,0.3,4,0.8c1.1,0.5,1.9,1.2,2.6,2.1s1.1,2,1.4,3.2
		c0.3,1.2,0.4,2.5,0.4,3.8V331.7z"/>
	<path class="st9" d="M194.5,331.8c0,0.2-0.1,0.4-0.3,0.6c-0.2,0.1-0.5,0.2-0.8,0.3c-0.4,0.1-0.9,0.1-1.7,0.1c-0.8,0-1.4,0-1.7-0.1
		c-0.4-0.1-0.6-0.2-0.8-0.3c-0.1-0.1-0.2-0.3-0.2-0.6v-1.9c-1,1-2.1,1.8-3.3,2.4s-2.6,0.9-4.1,0.9c-1.2,0-2.4-0.2-3.4-0.5
		c-1-0.3-2-0.8-2.7-1.5c-0.8-0.6-1.4-1.4-1.8-2.4s-0.6-2.1-0.6-3.3c0-1.4,0.3-2.6,0.8-3.6c0.5-1,1.3-1.8,2.4-2.5
		c1.1-0.7,2.4-1.1,4-1.5s3.4-0.5,5.5-0.5h2.3v-1.4c0-0.7-0.1-1.4-0.2-1.9c-0.1-0.6-0.4-1-0.7-1.4s-0.8-0.6-1.4-0.8
		c-0.6-0.2-1.3-0.3-2.1-0.3c-1.1,0-2.1,0.1-3,0.4s-1.6,0.5-2.3,0.8c-0.7,0.3-1.2,0.6-1.7,0.8s-0.8,0.4-1.1,0.4
		c-0.2,0-0.4-0.1-0.5-0.2c-0.1-0.1-0.3-0.3-0.4-0.5c-0.1-0.2-0.2-0.5-0.2-0.8s-0.1-0.7-0.1-1.1c0-0.5,0-1,0.1-1.3
		c0.1-0.3,0.3-0.6,0.5-0.9c0.2-0.3,0.7-0.5,1.3-0.8c0.6-0.3,1.3-0.6,2.2-0.9c0.8-0.3,1.7-0.5,2.7-0.6s2-0.3,3-0.3
		c1.8,0,3.4,0.2,4.7,0.5c1.3,0.4,2.4,0.9,3.2,1.7s1.5,1.7,1.8,2.9c0.4,1.2,0.6,2.6,0.6,4.2V331.8z M188,321.7h-2.5
		c-1.1,0-2,0.1-2.7,0.2c-0.8,0.2-1.4,0.4-1.8,0.7s-0.8,0.7-1,1.1c-0.2,0.4-0.3,1-0.3,1.5c0,1,0.3,1.8,0.9,2.3
		c0.6,0.6,1.5,0.8,2.6,0.8c0.9,0,1.8-0.2,2.6-0.7c0.8-0.5,1.6-1.2,2.4-2.1V321.7z"/>
	<path class="st9" d="M207.8,300.2c0,1.3-0.3,2.3-0.8,2.8c-0.5,0.5-1.6,0.8-3,0.8c-1.5,0-2.5-0.2-3-0.7c-0.5-0.5-0.8-1.4-0.8-2.7
		c0-1.3,0.3-2.3,0.8-2.8c0.5-0.5,1.6-0.8,3-0.8c1.5,0,2.5,0.2,3,0.8C207.5,298.1,207.8,299,207.8,300.2z M207.3,331.7
		c0,0.2-0.1,0.3-0.2,0.5c-0.1,0.1-0.3,0.2-0.5,0.3c-0.3,0.1-0.6,0.2-1,0.2s-1,0.1-1.6,0.1c-0.7,0-1.2,0-1.6-0.1s-0.8-0.1-1-0.2
		c-0.3-0.1-0.4-0.2-0.5-0.3c-0.1-0.1-0.2-0.3-0.2-0.5v-23.5c0-0.2,0.1-0.3,0.2-0.5c0.1-0.1,0.3-0.2,0.5-0.3c0.3-0.1,0.6-0.2,1-0.2
		s1-0.1,1.6-0.1c0.6,0,1.2,0,1.6,0.1s0.8,0.1,1,0.2c0.3,0.1,0.4,0.2,0.5,0.3c0.1,0.1,0.2,0.3,0.2,0.5V331.7z"/>
	<path class="st9" d="M220.1,331.7c0,0.2-0.1,0.3-0.2,0.5c-0.1,0.1-0.3,0.2-0.5,0.3c-0.3,0.1-0.6,0.2-1,0.2s-1,0.1-1.6,0.1
		c-0.7,0-1.2,0-1.6-0.1s-0.8-0.1-1-0.2c-0.3-0.1-0.4-0.2-0.5-0.3c-0.1-0.1-0.2-0.3-0.2-0.5v-34.7c0-0.2,0.1-0.3,0.2-0.5
		s0.3-0.3,0.5-0.4c0.3-0.1,0.6-0.2,1-0.2s1-0.1,1.6-0.1c0.6,0,1.2,0,1.6,0.1s0.8,0.1,1,0.2c0.3,0.1,0.4,0.2,0.5,0.4s0.2,0.3,0.2,0.5
		V331.7z"/>
</g>
</svg>
